<svg width="24" height="24" viewBox="0 0 24 24" fill="none" xmlns="http://www.w3.org/2000/svg">
<path fill-rule="evenodd" clip-rule="evenodd" d="M1.82874 0H13.8707C14.6262 0 15.2712 0.430979 15.5603 1.1289C15.8494 1.82682 15.698 2.58768 15.1639 3.12186L3.12192 15.1639C2.58774 15.698 1.82688 15.8494 1.12896 15.5603C0.431039 15.2712 0 14.6261 0 13.8707V1.82874C0 0.82152 0.82152 0 1.82874 0Z" fill="#FFF700"/>
<path fill-rule="evenodd" clip-rule="evenodd" d="M22.1713 24.0001H10.1293C9.37387 24.0001 8.72881 23.5691 8.43973 22.8712C8.15059 22.1733 8.30197 21.4124 8.83615 20.8782L20.8782 8.83625C21.4123 8.30207 22.1732 8.15075 22.8711 8.43983C23.569 8.72891 24 9.37397 24 10.1294V22.1714C24 23.1786 23.1785 24.0001 22.1713 24.0001Z" fill="#FFF700"/>
<path d="M17.2676 4.57129H6.73249C5.53899 4.57129 4.57147 5.53881 4.57147 6.73231V17.2674C4.57147 18.4609 5.53899 19.4284 6.73249 19.4284H17.2676C18.4611 19.4284 19.4286 18.4609 19.4286 17.2674V6.73231C19.4286 5.53881 18.4611 4.57129 17.2676 4.57129Z" fill="white"/>
<path fill-rule="evenodd" clip-rule="evenodd" d="M13.5591 16.2486C16.5154 15.3311 16.544 12.0113 15.214 10.0429L14.4225 10.8223C13.9904 9.40907 12.4609 7.91561 11.2699 7.10327C11.3941 8.08283 11.3109 8.97197 10.7171 9.32351C10.6656 8.94341 10.5631 8.62883 10.3753 8.42411C10.1907 8.85953 9.97375 9.13031 9.69487 9.36521C7.55065 11.1712 7.02997 14.7488 10.1055 16.1048C9.56233 15.7677 9.14317 15.2135 9.08023 14.0362C9.46141 14.6751 9.98407 14.9904 10.6452 14.9896C9.59581 13.8296 9.14743 12.3906 10.3128 10.2026C10.2404 12.2645 12.4447 12.4321 13.0375 13.6225C13.5732 13.1123 14.1123 12.7434 14.6743 13.3167L15.16 13.5325C13.8559 13.4696 14.7245 15.1261 13.5591 16.2487L13.5591 16.2486Z" fill="#0B132B"/>
</svg>
