<svg width="74" height="69" viewBox="0 0 74 69" fill="none" xmlns="http://www.w3.org/2000/svg">
<path d="M37 12.5002V62.5002M22.8333 22.5002H15.3333M25.3333 32.5002H15.3333M70.3333 50.0002V9.76686C70.3333 5.76686 67.0667 2.80019 63.1 3.13353H62.9C55.9 3.73353 45.2667 7.30019 39.3333 11.0335L38.7667 11.4002C37.8 12.0002 36.2 12.0002 35.2333 11.4002L34.4 10.9002C28.4667 7.20019 17.8667 3.66686 10.8667 3.10019C6.89999 2.76686 3.66666 5.76686 3.66666 9.73353V50.0002C3.66666 53.2002 6.26666 56.2002 9.46666 56.6002L10.4333 56.7335C17.6667 57.7002 28.8333 61.3669 35.2333 64.8669L35.3667 64.9335C36.2667 65.4335 37.7 65.4335 38.5667 64.9335C44.9667 61.4002 56.1667 57.7002 63.4333 56.7335L64.5333 56.6002C67.7333 56.2002 70.3333 53.2002 70.3333 50.0002Z" stroke="#FFF700" stroke-width="6" stroke-linecap="round" stroke-linejoin="round"/>
</svg>
