<svg width="80" height="81" viewBox="0 0 80 81" fill="none" xmlns="http://www.w3.org/2000/svg">
<path d="M73.3333 50.2002V30.2002C73.3333 13.5335 66.6667 6.86688 50 6.86688H30C13.3333 6.86688 6.66666 13.5335 6.66666 30.2002V50.2002C6.66666 66.8669 13.3333 73.5336 30 73.5336H50C66.6667 73.5336 73.3333 66.8669 73.3333 50.2002Z" stroke="#FFF700" stroke-width="6" stroke-linecap="round" stroke-linejoin="round"/>
<path d="M39.1333 50.8002C39.1333 52.6744 38.3888 54.4718 37.0636 55.7971C35.7383 57.1224 33.9409 57.8669 32.0667 57.8669C30.1925 57.8669 28.395 57.1224 27.0698 55.7971C25.7445 54.4718 25 52.6744 25 50.8002C25 48.926 25.7445 47.1286 27.0698 45.8033C28.395 44.4781 30.1925 43.7335 32.0667 43.7335C33.9409 43.7335 35.7383 44.4781 37.0636 45.8033C38.3888 47.1286 39.1333 48.926 39.1333 50.8002ZM39.1333 50.8002V26.1002M39.1333 26.1002V28.1669C39.1333 30.1669 40.6667 32.3002 42.5667 32.9335L50.3667 35.5335C52.9 36.4002 55 34.9002 55 32.2002V30.1335C55 28.1335 53.4667 26.0002 51.5667 25.3669L43.7667 22.7669C41.2 21.9002 39.1333 23.4335 39.1333 26.1002Z" stroke="#FFF700" stroke-width="6" stroke-linecap="round" stroke-linejoin="round"/>
</svg>
