<svg width="41" height="40" viewBox="0 0 41 40" fill="none" xmlns="http://www.w3.org/2000/svg">
<path d="M4.70004 11.85H36.3M14.7 3.51671V11.6167M26.3 3.51671V10.8667M37.1667 25V15C37.1667 6.66671 33.8334 3.33337 25.5 3.33337H15.5C7.16671 3.33337 3.83337 6.66671 3.83337 15V25C3.83337 33.3334 7.16671 36.6667 15.5 36.6667H25.5C33.8334 36.6667 37.1667 33.3334 37.1667 25Z" stroke="#FFF700" stroke-width="4" stroke-linecap="round" stroke-linejoin="round"/>
<path d="M16.75 24.0833V22.0833C16.75 19.5167 18.5667 18.4667 20.7833 19.75L22.5167 20.75L24.25 21.75C26.4667 23.0333 26.4667 25.1333 24.25 26.4167L22.5167 27.4167L20.7833 28.4167C18.5667 29.7 16.75 28.65 16.75 26.0833V24.0833Z" stroke="#FFF700" stroke-width="4" stroke-miterlimit="10" stroke-linecap="round" stroke-linejoin="round"/>
</svg>
